# xmcd
#
# Track frame offsets:
#	183
#	35640
#	65855
#	117768
#	141640
#	175368
#
# Disc length: 2799 seconds
# Revision: 11
# Processed by: cddbd v1.5.2PL0 Copyright (c) Steve Scherf et al.
# Submitted via: dBpowerAMP V12.0
#
DISCID=5f0aed06
DTITLE=Eric Clapton - E. C. Was Here
DYEAR=1975
DGENRE=Rock
TTITLE0=Have You Ever Loved a Woman
TTITLE1=Presence of the Lord
TTITLE2=Driftin' Blues
TTITLE3=Can't Find My Way Home
TTITLE4=Rambling on My Mind
TTITLE5=Further on Up the Road
EXTD=
EXTT0=
EXTT1=
EXTT2=
EXTT3=
EXTT4=
EXTT5=
PLAYORDER=
